<svg width="358" height="96" viewBox="0 0 358 96" fill="none" xmlns="http://www.w3.org/2000/svg">
<g clip-path="url(#clip0_3979_709)">
<path d="M56.8 9.09961H98.4L60 40.8996V52.1996L85.9 51.9996C83.5 73.1996 64.4 88.2996 43.2 85.8996C22 83.4996 6.9 64.3996 9.3 43.1996C11.5 23.7996 28 9.09961 47.6 9.09961V0.0996094C21.3 0.0996094 0 21.3996 0 47.5996C0 73.7996 21.3 95.1996 47.6 95.1996C73.9 95.1996 95.2 73.8996 95.2 47.5996V47.3996V42.8996H71.6L111 10.3996V0.0996094H56.8V9.09961Z" fill="#0084FF"/>
<path d="M30.0996 30.5H21.0996V51.1H30.0996V30.5Z" fill="#0084FF"/>
<path d="M47.9004 30.5H38.9004V51.1H47.9004V30.5Z" fill="#0084FF"/>
<path d="M153.899 40.1H164.399C166.099 40.1 167.399 41.4 167.399 43.1V47.7C167.599 51.4 165.999 55 163.299 57.4C160.399 59.8 156.699 61 152.999 60.8C148.899 60.8 144.999 59.4 141.999 56.7C138.999 53.9 137.399 50 137.499 45.9V22.2C137.399 18.2 138.899 14.3 141.599 11.5C147.699 6.1 156.899 5.9 163.099 11.2C165.499 13.5 166.999 16.6 167.199 20H176.999C176.899 16.5 175.899 13.1 173.999 10.2C171.999 7 168.999 4.5 165.499 2.8C161.399 0.900001 156.999 -0.0999989 152.499 1.14506e-06C147.999 -0.0999989 143.499 0.900001 139.399 2.8C135.799 4.5 132.799 7.3 130.799 10.7C128.699 14.3 127.699 18.4 127.699 22.6V45.5C127.699 49.7 128.699 53.8 130.799 57.4C132.899 60.8 135.799 63.5 139.399 65.3C143.499 67.3 147.999 68.3 152.499 68.2C156.999 68.2 161.499 67.4 165.599 65.4C169.099 63.7 172.099 61 173.999 57.6C176.099 53.9 177.099 49.6 176.999 45.4V33.2H153.799V40.1H153.899Z" fill="#231F20"/>
<path d="M235.199 59.9998H201.999C200.299 59.9998 198.999 58.6998 198.999 56.9998V40.3998C198.999 38.6998 200.299 37.3998 201.999 37.3998H223.299V29.9998H201.999C200.299 29.9998 198.999 28.6998 198.999 26.9998V11.1998C198.999 9.4998 200.299 8.1998 201.999 8.1998H235.199V0.799805H189.199V67.2998H235.199V59.9998Z" fill="#231F20"/>
<path d="M298.299 0.799805H288.499V42.3998C288.699 43.6998 287.799 44.8998 286.599 45.2998H286.399C285.199 45.4998 283.999 44.9998 283.399 43.9998L256.499 0.799805H246.299V67.2998H256.099L255.899 25.4998C255.799 24.1998 256.699 22.9998 257.999 22.5998H258.099C259.299 22.2998 260.499 22.7998 261.099 23.7998H261.199C261.199 23.8998 288.199 67.2998 288.199 67.2998H298.399V0.799805H298.299Z" fill="#231F20"/>
<path d="M311 57.5998V67.3998H357.1V59.9998H325.6C324.5 59.9998 323.5 59.3998 323 58.4998C322.5 57.5998 322.5 56.5998 323 55.6998L323.2 55.3998L357.1 10.5998V0.799805H311V8.1998H342.5C343.5 8.1998 344.4 8.5998 345 9.3998C345.8 10.3998 345.7 11.8998 344.9 12.8998L311 57.5998Z" fill="#231F20"/>
<path d="M355.625 82.0401C355.687 81.9535 355.762 81.9102 355.848 81.9102H356.814C356.938 81.9102 356.999 81.9721 356.999 82.0958V94.7224C356.999 94.8462 356.938 94.908 356.814 94.908H355.867C355.743 94.908 355.681 94.8462 355.681 94.7224V84.3983C355.681 84.3612 355.669 84.3364 355.644 84.324C355.619 84.3117 355.601 84.3241 355.588 84.3612L352.562 89.0033C352.5 89.0899 352.425 89.1333 352.339 89.1333H351.856C351.769 89.1333 351.695 89.0961 351.633 89.0219L348.607 84.4169C348.594 84.3798 348.576 84.3674 348.551 84.3798C348.526 84.3921 348.514 84.4169 348.514 84.454V94.7224C348.514 94.8462 348.452 94.908 348.328 94.908H347.381C347.257 94.908 347.195 94.8462 347.195 94.7224V82.0958C347.195 81.9721 347.257 81.9102 347.381 81.9102H348.347C348.446 81.9102 348.52 81.9473 348.569 82.0216L352.06 87.3136C352.073 87.3259 352.091 87.3321 352.116 87.3321C352.141 87.3321 352.159 87.3259 352.172 87.3136L355.625 82.0401Z" fill="#231F20"/>
<path d="M343.992 82.8757C343.992 82.9995 343.93 83.0614 343.806 83.0614H336.973C336.923 83.0614 336.898 83.0862 336.898 83.1357V87.7221C336.898 87.7716 336.923 87.7963 336.973 87.7963H341.763C341.887 87.7963 341.949 87.8582 341.949 87.982V88.7619C341.949 88.8857 341.887 88.9476 341.763 88.9476H336.973C336.923 88.9476 336.898 88.9723 336.898 89.0219V93.6825C336.898 93.732 336.923 93.7568 336.973 93.7568H343.806C343.93 93.7568 343.992 93.8187 343.992 93.9425V94.7224C343.992 94.8462 343.93 94.908 343.806 94.908H335.766C335.642 94.908 335.58 94.8462 335.58 94.7224V82.0958C335.58 81.9721 335.642 81.9102 335.766 81.9102H343.806C343.93 81.9102 343.992 81.9721 343.992 82.0958V82.8757Z" fill="#231F20"/>
<path d="M332.474 81.9102C332.598 81.9102 332.66 81.9721 332.66 82.0958V82.8943C332.66 83.0181 332.598 83.08 332.474 83.08H328.835C328.785 83.08 328.761 83.1047 328.761 83.1542V94.7224C328.761 94.8462 328.699 94.908 328.575 94.908H327.628C327.504 94.908 327.442 94.8462 327.442 94.7224V83.1542C327.442 83.1047 327.417 83.08 327.368 83.08H323.877C323.753 83.08 323.691 83.0181 323.691 82.8943V82.0958C323.691 81.9721 323.753 81.9102 323.877 81.9102H332.474Z" fill="#231F20"/>
<path d="M317.574 95.0557C316.175 95.0557 315.067 94.7401 314.25 94.1087C313.445 93.4774 313.043 92.6356 313.043 91.5834V91.0078C313.043 90.884 313.105 90.8221 313.229 90.8221H314.138C314.262 90.8221 314.324 90.884 314.324 91.0078V91.5092C314.324 92.2271 314.621 92.8089 315.215 93.2546C315.81 93.6879 316.633 93.9045 317.685 93.9045C318.638 93.9045 319.362 93.7064 319.858 93.3103C320.353 92.9018 320.6 92.3633 320.6 91.6948C320.6 91.2616 320.483 90.8902 320.248 90.5807C320.025 90.2713 319.672 89.9804 319.189 89.708C318.719 89.4357 318.05 89.12 317.184 88.761C316.255 88.3897 315.531 88.0678 315.011 87.7955C314.504 87.5108 314.089 87.1518 313.767 86.7185C313.458 86.2729 313.303 85.7158 313.303 85.0474C313.303 84.0075 313.662 83.2029 314.38 82.6335C315.11 82.0516 316.107 81.7607 317.369 81.7607C318.743 81.7607 319.827 82.0826 320.619 82.7263C321.411 83.37 321.807 84.2242 321.807 85.2887V85.6972C321.807 85.821 321.745 85.8829 321.622 85.8829H320.693C320.569 85.8829 320.507 85.821 320.507 85.6972V85.363C320.507 84.645 320.223 84.057 319.653 83.599C319.096 83.141 318.316 82.912 317.314 82.912C316.435 82.912 315.76 83.0915 315.29 83.4505C314.819 83.8095 314.584 84.3294 314.584 85.0102C314.584 85.4559 314.696 85.8272 314.918 86.1243C315.154 86.409 315.482 86.6628 315.903 86.8856C316.336 87.0961 316.998 87.3746 317.889 87.7212C318.793 88.0926 319.517 88.4392 320.062 88.761C320.619 89.0829 321.065 89.479 321.399 89.9494C321.745 90.4074 321.919 90.9707 321.919 91.6391C321.919 92.679 321.535 93.5084 320.767 94.1273C320 94.7462 318.935 95.0557 317.574 95.0557Z" fill="#231F20"/>
<path d="M306.18 94.8895C306.056 94.8895 305.994 94.8276 305.994 94.7038V89.2075C305.994 89.158 305.988 89.1271 305.976 89.1147L302.113 82.133C302.089 82.0835 302.076 82.0463 302.076 82.0216C302.076 81.9473 302.132 81.9102 302.243 81.9102H303.246C303.357 81.9102 303.432 81.9535 303.469 82.0401L306.588 87.7035C306.601 87.7159 306.619 87.7221 306.644 87.7221C306.669 87.7221 306.687 87.7159 306.7 87.7035L309.838 82.0401C309.887 81.9535 309.962 81.9102 310.061 81.9102H311.063C311.138 81.9102 311.187 81.9349 311.212 81.9844C311.237 82.0216 311.23 82.0711 311.193 82.133L307.331 89.1147C307.319 89.1271 307.312 89.158 307.312 89.2075V94.7038C307.312 94.8276 307.251 94.8895 307.127 94.8895H306.18Z" fill="#231F20"/>
<path d="M295.886 95.0557C294.487 95.0557 293.379 94.7401 292.562 94.1087C291.758 93.4774 291.355 92.6356 291.355 91.5834V91.0078C291.355 90.884 291.417 90.8221 291.541 90.8221H292.451C292.575 90.8221 292.637 90.884 292.637 91.0078V91.5092C292.637 92.2271 292.934 92.8089 293.528 93.2546C294.122 93.6879 294.945 93.9045 295.998 93.9045C296.951 93.9045 297.675 93.7064 298.17 93.3103C298.665 92.9018 298.913 92.3633 298.913 91.6948C298.913 91.2616 298.795 90.8902 298.56 90.5807C298.337 90.2713 297.984 89.9804 297.502 89.708C297.031 89.4357 296.363 89.12 295.496 88.761C294.568 88.3897 293.844 88.0678 293.324 87.7955C292.816 87.5108 292.401 87.1518 292.08 86.7185C291.77 86.2729 291.615 85.7158 291.615 85.0474C291.615 84.0075 291.974 83.2029 292.692 82.6335C293.423 82.0516 294.419 81.7607 295.682 81.7607C297.056 81.7607 298.139 82.0826 298.931 82.7263C299.724 83.37 300.12 84.2242 300.12 85.2887V85.6972C300.12 85.821 300.058 85.8829 299.934 85.8829H299.006C298.882 85.8829 298.82 85.821 298.82 85.6972V85.363C298.82 84.645 298.535 84.057 297.966 83.599C297.409 83.141 296.629 82.912 295.626 82.912C294.747 82.912 294.073 83.0915 293.602 83.4505C293.132 83.8095 292.897 84.3294 292.897 85.0102C292.897 85.4559 293.008 85.8272 293.231 86.1243C293.466 86.409 293.794 86.6628 294.215 86.8856C294.648 87.0961 295.311 87.3746 296.202 87.7212C297.105 88.0926 297.83 88.4392 298.374 88.761C298.931 89.0829 299.377 89.479 299.711 89.9494C300.058 90.4074 300.231 90.9707 300.231 91.6391C300.231 92.679 299.847 93.5084 299.08 94.1273C298.312 94.7462 297.248 95.0557 295.886 95.0557Z" fill="#231F20"/>
<path d="M280.242 95.0557C279.376 95.0557 278.615 94.8886 277.959 94.5544C277.302 94.2078 276.789 93.725 276.417 93.106C276.058 92.4871 275.879 91.7753 275.879 90.9707V85.8458C275.879 85.0412 276.058 84.3294 276.417 83.7104C276.789 83.0915 277.302 82.6149 277.959 82.2807C278.615 81.934 279.376 81.7607 280.242 81.7607C281.097 81.7607 281.852 81.9279 282.508 82.2621C283.176 82.5963 283.69 83.0667 284.049 83.6733C284.408 84.2675 284.587 84.9421 284.587 85.6972V85.9386C284.587 86.0624 284.526 86.1243 284.402 86.1243H283.455C283.331 86.1243 283.269 86.0624 283.269 85.9386V85.7158C283.269 84.8864 282.991 84.2118 282.434 83.6919C281.889 83.1719 281.159 82.912 280.242 82.912C279.326 82.912 278.59 83.1781 278.033 83.7104C277.476 84.2427 277.197 84.9421 277.197 85.8087V91.0078C277.197 91.8743 277.482 92.5737 278.051 93.106C278.621 93.6383 279.37 93.9045 280.298 93.9045C281.202 93.9045 281.92 93.6569 282.452 93.1617C282.997 92.6666 283.269 92.0043 283.269 91.1749V89.4852C283.269 89.4357 283.244 89.4109 283.195 89.4109H280.465C280.342 89.4109 280.28 89.349 280.28 89.2252V88.4454C280.28 88.3216 280.342 88.2597 280.465 88.2597H284.402C284.526 88.2597 284.587 88.3216 284.587 88.4454V90.8407C284.587 92.1652 284.191 93.1989 283.399 93.9416C282.619 94.6844 281.567 95.0557 280.242 95.0557Z" fill="#231F20"/>
<path d="M271.112 82.0958C271.112 81.9721 271.174 81.9102 271.298 81.9102H272.245C272.369 81.9102 272.431 81.9721 272.431 82.0958V94.7224C272.431 94.8462 272.369 94.908 272.245 94.908H271.316C271.23 94.908 271.155 94.8647 271.094 94.7781L264.762 84.4726C264.749 84.4355 264.731 84.4231 264.706 84.4355C264.681 84.4355 264.669 84.454 264.669 84.4912L264.687 94.7224C264.687 94.8462 264.626 94.908 264.502 94.908H263.555C263.431 94.908 263.369 94.8462 263.369 94.7224V82.0958C263.369 81.9721 263.431 81.9102 263.555 81.9102H264.483C264.57 81.9102 264.644 81.9535 264.706 82.0401L271.038 92.3456C271.05 92.3827 271.069 92.4013 271.094 92.4013C271.118 92.3889 271.131 92.3642 271.131 92.327L271.112 82.0958Z" fill="#231F20"/>
<path d="M258.377 94.908C258.253 94.908 258.191 94.8462 258.191 94.7224V82.0958C258.191 81.9721 258.253 81.9102 258.377 81.9102H259.324C259.448 81.9102 259.51 81.9721 259.51 82.0958V94.7224C259.51 94.8462 259.448 94.908 259.324 94.908H258.377Z" fill="#231F20"/>
<path d="M255.086 81.9102C255.209 81.9102 255.271 81.9721 255.271 82.0958V82.8943C255.271 83.0181 255.209 83.08 255.086 83.08H251.446C251.397 83.08 251.372 83.1047 251.372 83.1542V94.7224C251.372 94.8462 251.31 94.908 251.186 94.908H250.239C250.115 94.908 250.054 94.8462 250.054 94.7224V83.1542C250.054 83.1047 250.029 83.08 249.979 83.08H246.488C246.365 83.08 246.303 83.0181 246.303 82.8943V82.0958C246.303 81.9721 246.365 81.9102 246.488 81.9102H255.086Z" fill="#231F20"/>
<path d="M244.519 94.908C244.408 94.908 244.334 94.8585 244.297 94.7595L243.554 92.4199C243.541 92.3827 243.517 92.3642 243.48 92.3642H237.928C237.89 92.3642 237.866 92.3827 237.853 92.4199L237.111 94.7595C237.073 94.8585 236.999 94.908 236.888 94.908H235.885C235.749 94.908 235.699 94.84 235.737 94.7038L239.84 82.0587C239.877 81.9597 239.952 81.9102 240.063 81.9102H241.326C241.437 81.9102 241.511 81.9597 241.548 82.0587L245.671 94.7038L245.689 94.7781C245.689 94.8647 245.634 94.908 245.522 94.908H244.519ZM238.225 91.1944C238.212 91.2191 238.212 91.2439 238.225 91.2686C238.249 91.281 238.274 91.2872 238.299 91.2872H243.09C243.114 91.2872 243.133 91.281 243.145 91.2686C243.17 91.2439 243.176 91.2191 243.164 91.1944L240.75 83.6185C240.738 83.5937 240.719 83.5813 240.694 83.5813C240.67 83.5813 240.651 83.5937 240.639 83.6185L238.225 91.1944Z" fill="#231F20"/>
<path d="M231.959 94.908C231.847 94.908 231.773 94.8647 231.736 94.7781L229.006 89.0219C228.994 88.9847 228.969 88.9662 228.932 88.9662H225.775C225.726 88.9662 225.701 88.9909 225.701 89.0404V94.7224C225.701 94.8462 225.639 94.908 225.515 94.908H224.568C224.445 94.908 224.383 94.8462 224.383 94.7224V82.0958C224.383 81.9721 224.445 81.9102 224.568 81.9102H229.378C230.442 81.9102 231.303 82.2444 231.959 82.9129C232.615 83.5689 232.943 84.4293 232.943 85.4939C232.943 86.3604 232.708 87.0969 232.237 87.7035C231.767 88.3101 231.129 88.7 230.325 88.8733C230.275 88.8981 230.263 88.929 230.288 88.9662L233.073 94.6852C233.085 94.71 233.091 94.7409 233.091 94.7781C233.091 94.8647 233.042 94.908 232.943 94.908H231.959ZM225.775 83.0614C225.726 83.0614 225.701 83.0862 225.701 83.1357V87.8335C225.701 87.883 225.726 87.9078 225.775 87.9078H229.229C229.947 87.9078 230.529 87.6849 230.975 87.2393C231.42 86.7936 231.643 86.2118 231.643 85.4939C231.643 84.7759 231.42 84.1941 230.975 83.7484C230.529 83.2904 229.947 83.0614 229.229 83.0614H225.775Z" fill="#231F20"/>
<path d="M221.181 82.8757C221.181 82.9995 221.119 83.0614 220.995 83.0614H214.162C214.113 83.0614 214.088 83.0862 214.088 83.1357V87.7221C214.088 87.7716 214.113 87.7963 214.162 87.7963H218.953C219.077 87.7963 219.138 87.8582 219.138 87.982V88.7619C219.138 88.8857 219.077 88.9476 218.953 88.9476H214.162C214.113 88.9476 214.088 88.9723 214.088 89.0219V93.6825C214.088 93.732 214.113 93.7568 214.162 93.7568H220.995C221.119 93.7568 221.181 93.8187 221.181 93.9425V94.7224C221.181 94.8462 221.119 94.908 220.995 94.908H212.955C212.831 94.908 212.77 94.8462 212.77 94.7224V82.0958C212.77 81.9721 212.831 81.9102 212.955 81.9102H220.995C221.119 81.9102 221.181 81.9721 221.181 82.0958V82.8757Z" fill="#231F20"/>
<path d="M206.348 81.8906C207.438 81.8906 208.311 82.2249 208.967 82.8933C209.635 83.5618 209.969 84.4407 209.969 85.53C209.969 86.607 209.629 87.4735 208.948 88.1296C208.28 88.7857 207.394 89.1137 206.293 89.1137H202.672C202.622 89.1137 202.598 89.1385 202.598 89.188V94.7214C202.598 94.8452 202.536 94.9071 202.412 94.9071H201.465C201.341 94.9071 201.279 94.8452 201.279 94.7214V82.0763C201.279 81.9525 201.341 81.8906 201.465 81.8906H206.348ZM206.2 88.0182C206.93 88.0182 207.524 87.7954 207.982 87.3497C208.441 86.8917 208.67 86.2913 208.67 85.5486C208.67 84.7935 208.441 84.1869 207.982 83.7289C207.524 83.2709 206.93 83.0419 206.2 83.0419H202.672C202.622 83.0419 202.598 83.0666 202.598 83.1161V87.9439C202.598 87.9934 202.622 88.0182 202.672 88.0182H206.2Z" fill="#231F20"/>
<path d="M193.497 95.0557C192.619 95.0557 191.845 94.8762 191.176 94.5172C190.508 94.1582 189.988 93.6569 189.617 93.0132C189.258 92.3571 189.078 91.602 189.078 90.7479V86.0686C189.078 85.2145 189.258 84.4655 189.617 83.8218C189.988 83.1658 190.508 82.6582 191.176 82.2992C191.845 81.9402 192.619 81.7607 193.497 81.7607C194.376 81.7607 195.15 81.9402 195.818 82.2992C196.499 82.6582 197.019 83.1658 197.378 83.8218C197.75 84.4655 197.935 85.2145 197.935 86.0686V90.7479C197.935 91.602 197.75 92.3571 197.378 93.0132C197.019 93.6569 196.499 94.1582 195.818 94.5172C195.15 94.8762 194.376 95.0557 193.497 95.0557ZM193.497 93.9231C194.438 93.9231 195.193 93.6383 195.763 93.0689C196.332 92.4995 196.617 91.7444 196.617 90.8036V86.05C196.617 85.1092 196.332 84.3541 195.763 83.7847C195.193 83.2029 194.438 82.912 193.497 82.912C192.569 82.912 191.82 83.2029 191.251 83.7847C190.681 84.3541 190.396 85.1092 190.396 86.05V90.8036C190.396 91.7444 190.681 92.4995 191.251 93.0689C191.82 93.6383 192.569 93.9231 193.497 93.9231Z" fill="#231F20"/>
<path d="M177.935 95.0557C176.536 95.0557 175.428 94.7401 174.611 94.1087C173.807 93.4774 173.404 92.6356 173.404 91.5834V91.0078C173.404 90.884 173.466 90.8221 173.59 90.8221H174.5C174.624 90.8221 174.686 90.884 174.686 91.0078V91.5092C174.686 92.2271 174.983 92.8089 175.577 93.2546C176.171 93.6879 176.994 93.9045 178.046 93.9045C179 93.9045 179.724 93.7064 180.219 93.3103C180.714 92.9018 180.962 92.3633 180.962 91.6948C180.962 91.2616 180.844 90.8902 180.609 90.5807C180.386 90.2713 180.033 89.9804 179.55 89.708C179.08 89.4357 178.412 89.12 177.545 88.761C176.617 88.3897 175.892 88.0678 175.373 87.7955C174.865 87.5108 174.45 87.1518 174.128 86.7185C173.819 86.2729 173.664 85.7158 173.664 85.0474C173.664 84.0075 174.023 83.2029 174.741 82.6335C175.472 82.0516 176.468 81.7607 177.731 81.7607C179.105 81.7607 180.188 82.0826 180.98 82.7263C181.772 83.37 182.169 84.2242 182.169 85.2887V85.6972C182.169 85.821 182.107 85.8829 181.983 85.8829H181.054C180.931 85.8829 180.869 85.821 180.869 85.6972V85.363C180.869 84.645 180.584 84.057 180.015 83.599C179.458 83.141 178.678 82.912 177.675 82.912C176.796 82.912 176.121 83.0915 175.651 83.4505C175.181 83.8095 174.945 84.3294 174.945 85.0102C174.945 85.4559 175.057 85.8272 175.28 86.1243C175.515 86.409 175.843 86.6628 176.264 86.8856C176.697 87.0961 177.359 87.3746 178.251 87.7212C179.154 88.0926 179.878 88.4392 180.423 88.761C180.98 89.0829 181.426 89.479 181.76 89.9494C182.107 90.4074 182.28 90.9707 182.28 91.6391C182.28 92.679 181.896 93.5084 181.129 94.1273C180.361 94.7462 179.297 95.0557 177.935 95.0557Z" fill="#231F20"/>
<path d="M170.98 82.8757C170.98 82.9995 170.918 83.0614 170.794 83.0614H163.961C163.911 83.0614 163.887 83.0862 163.887 83.1357V87.7221C163.887 87.7716 163.911 87.7963 163.961 87.7963H168.752C168.875 87.7963 168.937 87.8582 168.937 87.982V88.7619C168.937 88.8857 168.875 88.9476 168.752 88.9476H163.961C163.911 88.9476 163.887 88.9723 163.887 89.0219V93.6825C163.887 93.732 163.911 93.7568 163.961 93.7568H170.794C170.918 93.7568 170.98 93.8187 170.98 93.9425V94.7224C170.98 94.8462 170.918 94.908 170.794 94.908H162.754C162.63 94.908 162.568 94.8462 162.568 94.7224V82.0958C162.568 81.9721 162.63 81.9102 162.754 81.9102H170.794C170.918 81.9102 170.98 81.9721 170.98 82.0958V82.8757Z" fill="#231F20"/>
<path d="M151.83 94.908C151.706 94.908 151.645 94.8462 151.645 94.7224V82.0958C151.645 81.9721 151.706 81.9102 151.83 81.9102H152.777C152.901 81.9102 152.963 81.9721 152.963 82.0958V93.6825C152.963 93.732 152.988 93.7568 153.037 93.7568H159.592C159.716 93.7568 159.777 93.8187 159.777 93.9425V94.7224C159.777 94.8462 159.716 94.908 159.592 94.908H151.83Z" fill="#231F20"/>
<path d="M147.701 94.908C147.59 94.908 147.515 94.8585 147.478 94.7595L146.735 92.4199C146.723 92.3827 146.698 92.3642 146.661 92.3642H141.109C141.072 92.3642 141.047 92.3827 141.035 92.4199L140.292 94.7595C140.255 94.8585 140.181 94.908 140.069 94.908H139.067C138.931 94.908 138.881 94.84 138.918 94.7038L143.022 82.0587C143.059 81.9597 143.133 81.9102 143.245 81.9102H144.507C144.619 81.9102 144.693 81.9597 144.73 82.0587L148.852 94.7038L148.871 94.7781C148.871 94.8647 148.815 94.908 148.704 94.908H147.701ZM141.406 91.1944C141.394 91.2191 141.394 91.2439 141.406 91.2686C141.431 91.281 141.456 91.2872 141.481 91.2872H146.271C146.296 91.2872 146.315 91.281 146.327 91.2686C146.352 91.2439 146.358 91.2191 146.346 91.1944L143.932 83.6185C143.919 83.5937 143.901 83.5813 143.876 83.5813C143.851 83.5813 143.833 83.5937 143.82 83.6185L141.406 91.1944Z" fill="#231F20"/>
<path d="M132.531 95.0557C131.132 95.0557 130.024 94.7401 129.207 94.1087C128.402 93.4774 128 92.6356 128 91.5834V91.0078C128 90.884 128.062 90.8221 128.186 90.8221H129.096C129.219 90.8221 129.281 90.884 129.281 91.0078V91.5092C129.281 92.2271 129.578 92.8089 130.173 93.2546C130.767 93.6879 131.59 93.9045 132.642 93.9045C133.595 93.9045 134.319 93.7064 134.815 93.3103C135.31 92.9018 135.557 92.3633 135.557 91.6948C135.557 91.2616 135.44 90.8902 135.205 90.5807C134.982 90.2713 134.629 89.9804 134.146 89.708C133.676 89.4357 133.007 89.12 132.141 88.761C131.212 88.3897 130.488 88.0678 129.968 87.7955C129.461 87.5108 129.046 87.1518 128.724 86.7185C128.415 86.2729 128.26 85.7158 128.26 85.0474C128.26 84.0075 128.619 83.2029 129.337 82.6335C130.067 82.0516 131.064 81.7607 132.326 81.7607C133.701 81.7607 134.784 82.0826 135.576 82.7263C136.368 83.37 136.764 84.2242 136.764 85.2887V85.6972C136.764 85.821 136.702 85.8829 136.579 85.8829H135.65C135.526 85.8829 135.465 85.821 135.465 85.6972V85.363C135.465 84.645 135.18 84.057 134.61 83.599C134.053 83.141 133.273 82.912 132.271 82.912C131.392 82.912 130.717 83.0915 130.247 83.4505C129.776 83.8095 129.541 84.3294 129.541 85.0102C129.541 85.4559 129.653 85.8272 129.875 86.1243C130.111 86.409 130.439 86.6628 130.86 86.8856C131.293 87.0961 131.955 87.3746 132.846 87.7212C133.75 88.0926 134.474 88.4392 135.019 88.761C135.576 89.0829 136.022 89.479 136.356 89.9494C136.702 90.4074 136.876 90.9707 136.876 91.6391C136.876 92.679 136.492 93.5084 135.724 94.1273C134.957 94.7462 133.892 95.0557 132.531 95.0557Z" fill="#231F20"/>
</g>
<defs>
<clipPath id="clip0_3979_709">
<rect width="357.6" height="95.4" fill="white"/>
</clipPath>
</defs>
</svg>
